{"title":"Good Burger (1997) DVD Rip","uid":6408423,"size":734033966,"categoryP":"video","categoryS":"movies","magnet":"?xt=urn:btih:e79f9cea2d8e2b376377e2db3dacccebce0d4f19&amp;dn=Good+Burger+%281997%29+DVD+Rip&amp;tr=udp%3A%2F%2Ftracker.openbittorrent.com%3A80&amp;tr=udp%3A%2F%2Fopen.demonii.com%3A1337&amp;tr=udp%3A%2F%2Ftracker.coppersurfer.tk%3A6969&amp;tr=udp%3A%2F%2Fexodus.desync.com%3A6969","seeders":9,"leechers":1,"uploader":"RetroidPrime91","files":2,"time":1305888927,"description":"Dexter Reed, a high-schooler, is forced to get a summer job at a fast food restaurant called Good Burger after causing a car wreck by his school teacher Mr. Wheat. So Dexter must pay off his teacher's car by working very hard at Good Burger. Meanwhile things turned worse when Mondo Burger, a mammoth fast-food chain opens across the street, it looks like Good Burger is soon going to be history for good! Now it is up to Dexter and his new friend Ed the not-so bright cashier to save the day, as they develop a delicious special secret sauce that Ed created brings hundreds of new customers to their door and makes their new competition desperate to steal the recipe and all of their customers.\n\n\nFormat                           : AVI\nFormat/Info                      : Audio Video Interleave\nFile size                        : 700 MiB\nDuration                         : 1h 35mn\nOverall bit rate                 : 1 027 Kbps\nWriting application              : VirtualDubMod 1.5.4.1 (build 2178/release)\nWriting library                  : VirtualDubMod build 2178/release\n\nVideo\n\nFormat                           : MPEG-4 Visual\nFormat profile                   : Advanced Simple@L5\nFormat settings, BVOP            : 1\nFormat settings, QPel            : No\nFormat settings, GMC             : No warppoints\nFormat settings, Matrix          : Custom\nCodec ID                         : XVID\nCodec ID/Hint                    : XviD\nDuration                         : 1h 35mn\nBit rate                         : 892 Kbps\nWidth                            : 608 pixels\nHeight                           : 336 pixels\nDisplay aspect ratio             : 16:9\nFrame rate                       : 23.976 fps\nColor space                      : YUV\nChroma subsampling               : 4:2:0\nBit depth                        : 8 bits\nScan type                        : Progressive\nCompression mode                 : Lossy\nBits/(Pixel*Frame)               : 0.182\nStream size                      : 608 MiB (87%)\nWriting library                  : XviD 1.2.1 (UTC 2008-12-04)\n\nAudio\n\nFormat                           : MPEG Audio\nFormat version                   : Version 1\nFormat profile                   : Layer 3\nCodec ID                         : 55\nCodec ID/Hint                    : MP3\nDuration                         : 1h 35mn\nBit rate mode                    : Constant\nBit rate                         : 128 Kbps\nChannel(s)                       : 2 channels\nSampling rate                    : 48.0 KHz\nCompression mode                 : Lossy\nStream size                      : 87.3 MiB (12%)\nAlignment                        : Aligned on interleaves\nInterleave, duration             : 83 ms (2.00 video frames)\nInterleave, preload duration     : 504 ms\nWriting library                  : LAMELAME_MAJOR_VERSI\n\nPlease seed &amp; thank you for downloading, comments are appreciated.","torrent":{"xt":"urn:btih:e79f9cea2d8e2b376377e2db3dacccebce0d4f19","amp;dn":"Good+Burger+%281997%29+DVD+Rip","amp;tr":["udp%3A%2F%2Ftracker.openbittorrent.com%3A80","udp%3A%2F%2Fopen.demonii.com%3A1337","udp%3A%2F%2Ftracker.coppersurfer.tk%3A6969","udp%3A%2F%2Fexodus.desync.com%3A6969"],"infoHash":"e79f9cea2d8e2b376377e2db3dacccebce0d4f19","infoHashBuffer":{"type":"Buffer","data":[231,159,156,234,45,142,43,55,99,119,226,219,61,172,204,235,206,13,79,25]},"announce":[],"urlList":[]}}